# xmcd CD database file
#
# Track frame offsets:
#	150
#	18418
#	39439
#	59704
#	77071
#	98255
#	115732
#	133126
#	153126
#	166827
#	184819
#	208406
#	234293
#	235069
#	249321
#
# Disc length: 3645 seconds
#
# Revision: 0
# Processed by: cddbd v1.5.2PL0 Copyright (c) Steve Scherf et al.
# Submitted via: CDex 1.70beta2
#
DISCID=b80e3b0f
DTITLE=Rene Solis and The Pursuaders - Resurrection
DYEAR=2003
DGENRE=Blues
TTITLE0=Million Miles Away
TTITLE1=Lesson In The Blues
TTITLE2=Bad Things
TTITLE3=Midnight In Memphis
TTITLE4=Step To Window - B
TTITLE5=If You Don't Love Me
TTITLE6=I Sho Do
TTITLE7=Right By Me
TTITLE8=E Ticket Ride
TTITLE9=That's My Way
TTITLE10=Life On The Run
TTITLE11=It's Only Money
TTITLE12=Blues Party Intro
TTITLE13=Blues Party
TTITLE14=Thanks For Everything
EXTD=YEAR: 2003
EXTT0=
EXTT1=
EXTT2=
EXTT3=
EXTT4=
EXTT5=
EXTT6=
EXTT7=
EXTT8=
EXTT9=
EXTT10=
EXTT11=
EXTT12=
EXTT13=
EXTT14=
PLAYORDER=
